<?xml version="1.0" standalone="no"?>
<!DOCTYPE svg PUBLIC "-//W3C//DTD SVG 20010904//EN"
 "http://www.w3.org/TR/2001/REC-SVG-20010904/DTD/svg10.dtd">
<svg version="1.0" xmlns="http://www.w3.org/2000/svg"
 width="627.000000pt" height="627.000000pt" viewBox="0 0 627.000000 627.000000"
 preserveAspectRatio="xMidYMid meet">
<metadata>
Created by potrace 1.16, written by Peter Selinger 2001-2019
</metadata>
<g transform="translate(0.000000,0.000000) scale(1.000000) translate(0.000000,627.000000) scale(0.100000,-0.100000)"
fill="#F4F2ED" stroke="none">
<path d="M2270 5949 c-8 -4 -32 -15 -53 -24 -21 -9 -41 -23 -44 -31 -3 -8 -14
-14 -25 -14 -26 0 -299 -132 -316 -153 -17 -21 1 -57 28 -57 11 0 87 34 170
75 82 41 151 71 153 67 2 -4 7 -23 11 -43 4 -21 15 -48 26 -62 26 -33 37 -86
49 -245 12 -153 31 -234 71 -312 16 -30 32 -70 35 -89 4 -18 18 -56 31 -85 13
-28 26 -82 30 -121 4 -38 17 -104 30 -147 24 -74 88 -185 123 -211 30 -21 53
-102 55 -195 3 -94 15 -146 50 -232 13 -30 30 -91 38 -135 9 -45 34 -127 56
-183 34 -86 39 -108 32 -139 -14 -59 -24 -216 -14 -211 107 52 187 68 344 68
134 0 238 -17 304 -50 22 -10 42 -17 45 -15 2 3 -3 61 -11 131 l-16 125 29 67
c35 85 79 235 79 273 0 17 6 40 14 52 34 52 58 153 62 252 4 116 16 153 72
213 65 71 109 172 128 293 8 57 24 127 36 154 11 28 25 70 32 95 7 25 24 68
38 95 41 80 57 150 73 310 19 186 22 201 53 248 31 46 58 183 40 204 -6 8 -16
12 -22 10 -6 -2 -16 3 -22 12 -16 21 -151 23 -164 1 -14 -21 -12 -43 2 -34 6
4 2 -9 -10 -28 l-22 -36 20 -64 21 -63 -19 -96 c-11 -55 -39 -141 -65 -200
-45 -103 -69 -183 -81 -267 -5 -37 -16 -52 -59 -92 -34 -31 -64 -72 -85 -114
-38 -77 -66 -187 -51 -196 5 -4 -9 -12 -32 -19 -62 -19 -151 -111 -173 -179
-10 -29 -16 -55 -15 -56 2 -2 24 -11 49 -20 39 -14 41 -15 10 -10 -44 8 -122
47 -141 71 -13 16 -13 17 4 4 15 -12 17 -11 17 17 0 54 22 131 36 125 8 -3 16
9 23 34 14 49 14 80 0 85 -8 3 -8 21 0 63 5 33 9 82 7 109 -2 40 -8 54 -33 77
-17 15 -29 30 -26 33 10 10 -64 36 -101 36 -19 0 -37 4 -41 9 -7 12 -89 -15
-106 -35 -6 -8 -16 -14 -21 -14 -14 0 -46 -40 -64 -80 -12 -26 -14 -53 -10
-106 3 -39 8 -79 12 -88 5 -12 2 -15 -10 -10 -11 4 -16 1 -16 -12 0 -38 21
-89 42 -105 18 -14 23 -30 26 -83 2 -36 8 -66 13 -66 5 0 9 5 9 10 0 6 5 10
11 10 43 0 -95 -74 -156 -83 -39 -6 -39 -6 10 12 55 20 57 25 26 97 -34 77
-106 139 -191 165 -17 5 -19 8 -7 8 18 1 18 3 -5 96 -18 72 -74 169 -127 218
-28 26 -51 55 -51 65 -1 47 -34 165 -76 270 -51 126 -84 245 -84 303 0 20 9
57 20 82 19 43 20 48 4 89 -31 85 -33 86 -78 86 -23 -1 -48 -5 -56 -9z m1000
-1358 c0 -13 -64 -41 -92 -40 -14 1 -7 5 19 10 23 6 47 16 53 24 14 17 20 19
20 6z m-191 -30 c-6 -2 -18 4 -27 13 -15 15 -15 15 10 4 15 -7 23 -15 17 -17z
m-109 -317 c-16 -42 -68 -112 -103 -137 -57 -43 -57 -39 2 21 32 32 68 77 80
100 24 47 36 56 21 16z m388 -27 c17 -30 54 -75 84 -102 38 -35 45 -44 23 -32
-48 25 -105 91 -130 150 -22 53 -12 46 23 -16z m-199 -334 c-1 -184 -5 -279
-9 -248 -15 96 -10 545 6 545 2 0 3 -134 3 -297z M2410 5900 c0 -5 5 -20 11
-34 11 -24 14 -24 144 -28 l133 -3 71 -50 c113 -79 91 -75 356 -75 271 0 268
-1 365 81 l52 44 168 3 c167 3 167 3 179 28 6 14 11 29 11 34 0 6 -72 10 -177
10 -200 0 -196 1 -304 -82 l-61 -48 -226 0 c-199 0 -230 2 -253 18 -15 9 -51
34 -82 55 -30 21 -73 43 -94 48 -52 12 -293 12 -293 -1z M4145 5868 c-4 -16
-5 -31 -3 -32 1 -2 74 -36 161 -77 124 -57 162 -71 175 -62 22 13 27 47 10 60
-24 20 -263 125 -300 133 -35 7 -37 6 -43 -22z M2461 4567 c-26 -124 -31 -189
-37 -556 l-7 -388 61 -72 c34 -39 62 -70 62 -69 1 2 3 176 6 388 2 212 9 433
15 492 l11 108 -50 75 -51 75 -10 -53z M3801 4580 c-12 -22 -33 -53 -46 -68
-22 -26 -23 -32 -15 -102 5 -41 12 -258 16 -483 l7 -407 58 52 58 53 -5 370
c-5 346 -18 541 -42 606 -7 18 -10 16 -31 -21z M2287 3602 c-22 -24 -21 -34 3
-65 13 -16 16 -28 10 -32 -6 -4 -10 -60 -10 -141 0 -157 9 -146 -133 -165 -68
-9 -90 -16 -102 -32 -22 -31 -3 -57 41 -57 72 0 243 32 258 49 22 24 35 323
15 347 -12 15 -12 17 1 12 11 -3 16 -22 18 -63 2 -32 9 -67 17 -78 12 -17 13
-94 8 -486 l-6 -465 -24 -34 c-12 -19 -27 -51 -33 -71 -11 -36 -51 -417 -126
-1196 -22 -220 -40 -387 -42 -372 -4 34 -6 34 -83 -23 l-62 -45 114 -5 c106
-5 116 -3 137 16 17 15 25 35 27 70 2 27 13 135 25 239 11 105 34 327 50 495
47 484 79 787 86 807 4 10 17 29 30 43 l24 26 3 459 2 460 3 -466 c2 -412 0
-468 -14 -479 -36 -31 -34 -14 -99 -685 -26 -258 -49 -532 -52 -608 l-6 -137
46 0 c35 0 47 4 51 18 3 9 10 170 16 357 6 187 15 470 20 629 l10 288 29 34
c53 60 54 74 47 632 -4 283 -11 524 -16 536 -11 30 -136 178 -164 193 -33 19
-100 16 -119 -5z m190 -157 c37 -44 74 -89 82 -100 19 -28 -105 102 -142 149
-56 70 -11 33 60 -49z M3812 3553 c-35 -38 -74 -86 -87 -108 -22 -39 -40 -115
-27 -115 4 1 24 22 45 48 56 70 136 158 137 150 0 -4 -43 -57 -95 -118 l-95
-111 0 -112 c0 -62 5 -282 10 -491 11 -408 11 -405 69 -460 l31 -30 0 -200 c0
-111 5 -390 10 -620 11 -468 11 -466 75 -466 l35 0 0 62 c0 59 -14 249 -75
999 -14 168 -25 308 -25 312 0 3 -13 21 -29 39 l-29 33 -7 480 c-4 264 -5 477
-1 474 3 -3 10 -216 16 -474 10 -447 12 -471 31 -491 11 -11 24 -36 29 -54 5
-18 23 -202 40 -409 62 -766 81 -988 90 -1070 5 -46 7 -87 5 -91 -2 -4 8 -18
23 -31 26 -23 31 -24 146 -19 l119 5 -58 45 c-72 55 -95 59 -95 17 0 -95 -14
35 -54 518 -81 953 -86 1009 -101 1061 -8 28 -24 62 -34 76 -19 24 -21 50 -30
474 -9 416 -7 629 8 638 3 2 5 -66 3 -152 -4 -182 3 -207 57 -221 58 -16 236
-35 254 -28 20 7 23 50 5 65 -7 5 -51 15 -98 21 -145 21 -130 2 -130 161 0 84
-4 141 -10 145 -6 4 -3 16 10 32 38 49 15 83 -58 83 -45 0 -50 -3 -110 -67z
M3018 3450 c-89 -11 -169 -35 -201 -60 -43 -34 -88 -197 -102 -370 -4 -41 -13
-121 -21 -176 -18 -132 -19 -318 -1 -332 21 -17 182 -42 266 -41 118 2 124 5
138 74 19 95 44 318 35 327 -4 4 -36 9 -72 11 -36 2 5 3 90 3 85 0 122 -2 81
-3 l-74 -4 7 -82 c12 -136 37 -301 47 -312 15 -15 274 -9 334 7 43 12 51 19
56 44 10 47 9 213 -1 284 -6 36 -14 121 -20 190 -9 120 -44 290 -72 347 -16
32 -70 61 -147 79 -73 18 -257 25 -343 14z M3136 2676 c-4 -37 -13 -99 -21
-139 -10 -49 -15 -159 -17 -342 l-3 -270 -51 -3 -51 -3 -6 -77 c-3 -42 -17
-113 -31 -157 -46 -146 -54 -251 -31 -400 2 -16 10 -69 16 -117 l12 -88 187 0
187 0 7 63 c4 34 12 79 17 100 6 21 11 104 12 185 1 139 0 153 -31 256 -21 72
-32 130 -32 172 l0 63 -57 3 -58 3 -2 265 c-3 365 -30 647 -47 486z m-26 -791
c0 -14 -4 -25 -10 -25 -5 0 -10 11 -10 25 0 14 5 25 10 25 6 0 10 -11 10 -25z
m80 -2 c0 -20 -3 -24 -11 -16 -7 7 -9 19 -6 27 10 24 17 19 17 -11z m-43 -208
c0 -8 -4 -15 -9 -15 -4 0 -8 7 -8 15 0 8 4 15 8 15 5 0 9 -7 9 -15z m-4 -180
c4 -8 2 -17 -3 -20 -6 -4 -10 3 -10 14 0 25 6 27 13 6z m7 -125 c0 -11 -4 -20
-10 -20 -5 0 -10 9 -10 20 0 11 5 20 10 20 6 0 10 -9 10 -20z m0 -66 c0 -8 -4
-14 -10 -14 -5 0 -10 9 -10 21 0 11 5 17 10 14 6 -3 10 -13 10 -21z m-7 -49
c4 -8 2 -17 -3 -20 -6 -4 -10 3 -10 14 0 25 6 27 13 6z M2720 2473 c0 -5 7
-54 15 -108 18 -121 12 -192 -27 -315 -27 -86 -30 -104 -25 -195 3 -62 15
-144 33 -215 25 -99 28 -134 28 -250 -1 -118 -4 -145 -27 -215 -15 -44 -27
-94 -27 -112 0 -30 2 -32 45 -39 58 -8 182 -1 194 11 10 11 -19 278 -31 291
-13 13 -9 162 7 238 9 41 25 100 36 133 26 75 34 188 20 281 -11 73 -11 74 24
155 21 48 42 119 51 172 8 50 17 104 19 121 l5 32 -142 5 c-79 3 -155 9 -170
12 -16 4 -28 3 -28 -2z m161 -1233 c10 -6 19 -15 19 -21 0 -6 -7 -3 -16 5 -20
21 -93 21 -122 0 -12 -8 -22 -11 -22 -6 0 26 103 42 141 22z M3495 2469 c-22
-4 -90 -8 -151 -8 l-110 -1 18 -120 c11 -78 28 -146 48 -194 l31 -74 -7 -138
c-6 -136 -6 -141 25 -249 25 -84 34 -137 38 -228 6 -113 7 -117 27 -113 12 3
9 0 -6 -6 -31 -13 -31 -13 -53 -182 -13 -98 -14 -121 -3 -127 15 -10 162 -12
208 -3 31 7 32 8 27 53 -8 69 -30 142 -42 137 -6 -2 -19 2 -30 10 -25 19 -100
18 -119 -1 -8 -8 -17 -11 -20 -6 -16 25 96 39 146 17 13 -6 18 -1 24 28 4 23
2 42 -6 51 -20 24 -5 183 30 325 18 70 34 164 36 215 5 78 2 101 -20 175 -49
157 -53 251 -19 423 6 30 1 31 -72 16z M2622 1053 c-43 -21 -72 -59 -72 -93 0
-22 -27 -54 -136 -161 l-135 -134 3 -69 3 -69 145 156 c134 145 180 181 180
142 0 -8 9 -24 20 -35 19 -19 33 -20 501 -20 326 0 487 3 501 11 11 6 30 34
43 63 13 28 30 58 39 65 23 19 20 74 -4 96 -11 10 -20 23 -20 28 0 6 13 -2 29
-17 18 -17 36 -26 45 -23 8 3 18 2 21 -3 4 -6 -5 -10 -19 -10 -46 0 -29 -30
79 -139 l105 -106 -1 35 c-1 19 -4 60 -7 90 l-7 55 -37 -3 c-50 -5 -75 11 -89
56 -13 46 -69 86 -107 79 -14 -3 -40 2 -58 9 -19 8 -34 13 -35 12 0 -2 -2 -12
-4 -22 -2 -10 -10 -23 -17 -27 -36 -22 -228 -23 -251 0 -5 5 -10 17 -11 27 -3
18 -14 19 -187 19 l-183 0 -6 -25 c-7 -31 -63 -43 -167 -36 -81 5 -113 18
-113 46 0 24 -5 24 -48 3z m498 -103 l505 -6 -485 -2 c-472 -2 -549 2 -566 29
-3 6 4 5 17 -3 19 -10 131 -14 529 -18z m576 15 c-11 -8 -25 -15 -30 -15 -6 1
0 7 14 15 32 19 40 18 16 0z m-1107 -86 c11 -19 12 -21 0 -9 -8 8 -21 21 -29
29 -12 11 -12 12 -1 9 8 -2 21 -15 30 -29z M2523 1029 c-18 -12 -33 -24 -33
-28 0 -16 48 -2 74 22 25 23 26 27 10 27 -10 0 -34 -10 -51 -21z M2504 983
c-13 -3 -24 -16 -30 -36 -9 -31 -10 -32 -66 -32 -65 1 -56 16 -76 -123 l-9
-63 103 98 c97 93 127 136 108 152 -5 4 -18 5 -30 4z M3713 893 c-24 -27 -30
-53 -14 -53 6 0 73 -69 151 -152 78 -84 145 -154 148 -156 4 -1 6 28 4 65 l-3
68 -127 128 c-70 70 -129 127 -132 126 -3 0 -15 -12 -27 -26z M1990 641 c-5
-11 -10 -56 -10 -100 0 -66 -3 -82 -17 -90 -17 -10 -17 -12 1 -26 16 -12 50
-15 157 -15 133 0 138 1 168 26 17 14 31 32 31 40 0 20 -27 29 -45 14 -13 -11
-15 -1 -15 79 l0 91 -130 0 c-118 0 -130 -2 -140 -19z M4020 568 c0 -55 -4
-88 -9 -80 -10 16 -43 12 -48 -5 -3 -7 9 -26 25 -43 l30 -30 139 0 c108 0 143
3 159 15 18 14 18 16 2 28 -14 11 -18 33 -20 108 l-3 94 -137 3 -138 3 0 -93z"/>
</g>
</svg>
