<?xml version="1.0" standalone="no"?>
<!DOCTYPE svg PUBLIC "-//W3C//DTD SVG 20010904//EN"
 "http://www.w3.org/TR/2001/REC-SVG-20010904/DTD/svg10.dtd">
<svg version="1.0" xmlns="http://www.w3.org/2000/svg"
 width="627.000000pt" height="627.000000pt" viewBox="0 0 627.000000 627.000000"
 preserveAspectRatio="xMidYMid meet">
<metadata>
Created by potrace 1.16, written by Peter Selinger 2001-2019
</metadata>
<g transform="translate(0.000000,0.000000) scale(1.000000) translate(0.000000,627.000000) scale(0.100000,-0.100000)"
fill="#F4F2ED" stroke="none">
<path d="M2255 5295 c-5 -2 -23 -6 -38 -9 -16 -4 -25 -11 -21 -17 4 -7 0 -9
-13 -5 -13 4 -27 -2 -44 -20 -23 -24 -24 -32 -22 -132 l1 -106 36 -33 c39 -36
56 -39 191 -34 91 3 129 15 160 52 23 28 25 38 25 129 0 92 -2 101 -27 130
-25 31 -31 32 -78 15 -20 -6 -20 -6 0 6 19 12 19 12 0 20 -20 7 -150 11 -170
4z m25 -39 c0 -2 -11 -6 -25 -8 -14 -3 -25 -1 -25 3 0 5 11 9 25 9 14 0 25 -2
25 -4z m-73 -218 c-2 -13 -4 -5 -4 17 -1 22 1 32 4 23 2 -10 2 -28 0 -40z
m233 -38 c0 -6 -26 -9 -62 -8 l-63 1 60 7 c33 4 61 7 63 8 1 1 2 -2 2 -8z
M2290 4922 c-65 -3 -79 -6 -102 -29 -35 -34 -35 -60 -1 -148 18 -46 27 -87 26
-120 -1 -65 -42 -227 -100 -395 -43 -125 -47 -144 -51 -259 l-5 -124 -53 -76
c-29 -42 -74 -111 -100 -154 -39 -65 -59 -86 -124 -131 -86 -61 -119 -96 -158
-170 -36 -70 -38 -188 -4 -257 48 -99 138 -174 274 -230 121 -50 213 -61 448
-53 227 7 311 -1 445 -43 44 -14 101 -36 127 -49 26 -13 49 -24 50 -24 2 0 4
44 4 98 1 173 51 297 166 417 48 48 64 71 55 77 -36 24 -172 88 -186 88 -10 0
-26 -7 -37 -15 -16 -13 -17 -16 -4 -25 18 -12 1 -13 -18 -2 -9 7 -8 13 8 27
27 25 25 32 -12 55 -71 43 -112 44 -153 4 -15 -16 -19 -15 -47 6 -17 13 -56
31 -87 41 -39 13 -45 17 -21 14 19 -3 58 -17 87 -31 50 -24 53 -24 78 -8 14 9
25 20 25 24 0 20 -95 70 -132 70 -11 0 -43 20 -70 45 -68 61 -161 90 -262 82
-50 -5 -74 -11 -83 -24 -24 -32 -16 -43 35 -43 64 0 134 -22 178 -55 34 -26
43 -27 89 -10 l20 8 -20 -16 c-11 -9 -28 -17 -37 -17 -10 0 -18 -8 -18 -17 0
-30 -56 -116 -106 -163 l-48 -45 51 57 c28 32 61 78 73 103 21 43 21 47 6 70
-26 40 -92 68 -172 73 l-71 4 -50 -103 c-27 -57 -73 -133 -101 -168 -57 -70
-57 -77 -4 -133 14 -16 20 -28 14 -28 -7 0 -26 21 -42 46 l-29 46 -30 -54
c-46 -81 -53 -89 -26 -28 13 30 44 80 68 110 102 130 147 214 210 397 20 56
45 120 57 143 33 64 62 213 64 325 0 55 -3 190 -8 300 -7 161 -12 204 -25 219
-15 18 -15 18 7 7 12 -6 22 -17 22 -23 0 -6 11 -1 24 11 20 19 24 20 29 7 4
-9 13 -16 21 -16 16 0 22 -20 31 -112 5 -49 1 -114 -16 -232 -21 -153 -22
-169 -8 -233 l15 -69 -49 -65 c-26 -35 -67 -102 -89 -149 -22 -47 -44 -92 -48
-101 -7 -13 3 -15 79 -11 97 5 176 -16 237 -63 l34 -26 11 28 c19 51 48 167
63 253 8 47 20 98 25 113 6 16 11 79 11 140 0 133 -17 212 -93 457 -30 96 -58
189 -62 205 -19 88 -126 188 -195 183 -19 -2 -69 -4 -110 -6z m120 -46 l25
-29 -27 19 c-15 10 -28 25 -28 33 0 8 1 12 3 10 1 -2 13 -17 27 -33z m-180 5
c0 -5 13 -14 29 -21 40 -16 121 -96 120 -117 0 -17 -1 -17 -12 1 -30 48 -63
79 -108 102 -45 22 -64 44 -39 44 6 0 10 -4 10 -9z m167 -46 c0 -8 -4 -15 -9
-15 -4 0 -8 7 -8 15 0 8 4 15 8 15 5 0 9 -7 9 -15z m53 -129 c0 -26 -6 -18
-14 19 -5 22 -4 26 4 15 5 -8 10 -24 10 -34z m60 -16 c6 -11 9 -20 7 -20 -2 0
-12 9 -22 20 -10 11 -13 20 -7 20 6 0 16 -9 22 -20z m109 -1366 c12 -16 35
-37 49 -46 15 -10 23 -18 19 -18 -36 0 -108 87 -106 129 1 24 2 23 9 -6 4 -17
17 -44 29 -59z m248 19 c33 -16 53 -33 53 -44 0 -18 -39 -71 -40 -53 0 6 7 17
15 24 28 23 15 41 -47 70 -35 16 -56 29 -48 30 8 0 38 -12 67 -27z m-121 -20
c-8 -15 -15 -22 -16 -15 0 17 20 55 27 49 2 -3 -2 -18 -11 -34z m-236 -62 c-5
-11 -15 -23 -22 -27 -7 -5 -8 -2 -3 7 21 37 44 55 25 20z m340 -59 c3 -3 -8
-2 -25 2 -16 4 -34 12 -40 17 -5 5 6 4 25 -2 19 -7 37 -14 40 -17z m85 -22
c25 -11 -1 -11 -35 0 -20 6 -21 8 -5 8 11 0 29 -3 40 -8z M2157 4736 c-8 -20
31 -108 44 -101 8 6 5 17 -24 84 -11 25 -16 29 -20 17z M1477 3753 c-31 -22
-50 -27 -105 -29 -121 -4 -174 -43 -175 -132 -1 -59 7 -72 42 -72 19 0 38 -11
60 -35 19 -22 41 -35 56 -35 13 0 27 -5 31 -12 17 -27 -63 4 -93 37 -23 25
-40 35 -62 35 -20 0 -34 7 -41 19 -15 28 -12 86 5 128 19 46 19 50 -5 58 -30
9 -53 -9 -83 -64 -82 -149 -85 -343 -8 -455 37 -53 62 -70 136 -91 62 -18 114
-15 200 12 69 21 81 34 69 75 -12 40 -44 58 -105 58 -48 0 -89 29 -89 62 0 22
36 65 61 71 15 4 11 -3 -17 -27 -30 -26 -35 -36 -29 -54 8 -27 43 -43 76 -35
43 10 89 52 89 81 0 19 3 23 11 15 15 -15 -14 -69 -41 -78 -28 -9 -25 -18 13
-35 25 -12 34 -24 41 -57 8 -35 14 -43 32 -43 19 0 23 7 29 53 4 28 17 77 29
108 l22 56 -50 -3 c-47 -3 -48 -3 -13 5 58 12 78 27 132 97 79 103 88 113 54
56 -17 -29 -30 -55 -28 -57 2 -2 19 9 38 24 30 25 35 35 39 84 5 66 -7 87 -48
87 -39 0 -60 9 -60 26 0 10 -10 13 -34 11 -26 -3 -33 0 -32 12 1 11 -9 17 -29
19 -20 2 -34 11 -40 25 -14 31 -35 31 -78 0z m-116 -52 c-8 -5 -18 -29 -21
-53 l-7 -43 -2 37 c-1 47 7 68 28 68 13 0 14 -2 2 -9z m58 -53 c-12 -16 -24
-27 -27 -24 -2 3 0 12 7 19 6 8 9 21 5 30 -4 12 -1 14 15 10 l21 -5 -21 -30z
M4440 3459 c-95 -10 -236 -35 -292 -51 -27 -8 -40 -19 -47 -39 -5 -16 -7 -30
-3 -31 4 0 97 -2 208 -2 l200 -1 43 -28 c46 -30 91 -109 91 -159 0 -60 41 -30
84 62 28 59 36 53 11 -8 -9 -20 -31 -53 -49 -72 -32 -34 -34 -39 -41 -140 -16
-229 -15 -639 3 -817 l17 -173 34 -6 c35 -7 104 7 151 29 18 9 24 19 22 37
-11 102 -12 278 -2 395 7 77 14 281 15 454 3 290 2 319 -16 378 -23 75 -74
137 -134 164 -44 21 -145 23 -295 8z M3960 3361 c-111 -38 -113 -39 -70 -41
41 -2 39 -3 -22 -10 -110 -13 -286 -50 -351 -73 -64 -23 -137 -23 -254 -2
l-43 8 -73 -74 c-112 -112 -166 -246 -167 -410 0 -98 8 -129 39 -142 14 -7 50
-31 80 -56 67 -53 123 -78 212 -92 93 -16 166 -1 299 61 84 39 131 54 235 74
138 25 185 39 185 56 0 6 -9 6 -25 0 -22 -8 -27 -6 -40 20 -37 73 -59 201 -59
355 -1 135 2 157 25 220 21 59 28 69 49 70 100 4 96 3 107 40 8 26 8 35 0 35
-7 -1 -64 -18 -127 -39z m-584 -202 c-43 -37 -71 -82 -96 -151 -11 -29 -19
-44 -20 -33 0 35 50 129 93 173 22 23 45 42 49 42 5 0 -7 -14 -26 -31z m-132
-70 c-34 -51 -63 -131 -65 -178 0 -14 -3 -20 -6 -12 -7 17 15 117 33 152 13
26 62 89 69 89 2 0 -12 -23 -31 -51z M4140 3310 c-96 -4 -176 -7 -177 -8 0 -1
-9 -23 -18 -49 -37 -107 -29 -372 17 -521 18 -59 20 -62 46 -56 28 7 131 61
194 102 26 17 41 37 52 70 20 58 20 62 -1 57 -10 -3 -6 1 9 8 15 7 34 22 43
32 19 27 19 5 -1 -23 -25 -37 -62 -158 -74 -243 -16 -114 -2 -200 51 -321 37
-86 78 -332 84 -513 3 -71 10 -140 16 -152 33 -63 161 -40 175 32 3 19 16 45
29 57 20 21 21 29 14 78 -11 78 -10 226 2 360 5 63 13 250 17 415 11 545 10
560 -46 627 -52 61 -55 61 -432 48z m390 -1535 c-39 -15 -118 -19 -138 -6 -7
4 10 6 40 4 29 -3 64 0 78 6 14 5 32 10 40 10 8 0 -1 -7 -20 -14z M1616 2917
l-39 -33 39 -32 c48 -40 179 -88 309 -114 124 -24 387 -29 518 -9 133 20 111
36 -35 25 -194 -14 -331 -9 -423 15 -105 28 -211 80 -273 136 -27 25 -52 45
-53 45 -2 0 -22 -15 -43 -33z M1506 2808 c-31 -34 -56 -65 -56 -70 0 -4 19
-22 42 -39 269 -194 909 -228 1292 -69 42 18 76 36 76 40 0 14 -108 50 -195
67 -59 11 -88 13 -110 5 -98 -34 -336 -50 -502 -33 -187 19 -368 74 -449 136
-18 14 -35 25 -37 25 -3 0 -30 -28 -61 -62z M1401 2653 c-37 -76 -75 -186 -86
-250 -6 -38 -4 -45 22 -67 45 -39 190 -112 288 -145 168 -56 320 -75 580 -75
257 0 376 16 563 75 156 50 312 141 312 182 0 20 -28 136 -37 149 -2 5 -25 -6
-51 -24 -160 -110 -486 -188 -788 -188 -269 0 -546 55 -717 142 -57 28 -130
79 -123 85 2 3 20 -6 38 -20 119 -91 361 -162 643 -188 340 -31 746 47 939
181 57 39 59 61 6 99 -78 56 -89 57 -183 17 -174 -74 -362 -108 -602 -108
-188 0 -291 11 -432 48 -123 32 -201 64 -274 114 -32 22 -60 40 -62 40 -1 0
-18 -30 -36 -67z M1305 2299 c-4 -22 -4 -66 0 -99 7 -57 9 -60 53 -89 403
-258 1147 -281 1592 -50 41 21 89 50 105 63 29 23 30 27 33 120 2 53 1 96 -3
96 -4 0 -24 -13 -44 -29 -97 -77 -276 -147 -470 -184 -101 -19 -149 -22 -371
-22 -275 1 -361 10 -535 60 -104 30 -238 91 -306 140 l-47 34 -7 -40z M1331
2049 c34 -123 45 -138 131 -184 224 -119 567 -181 871 -156 251 19 398 56 575
143 89 44 105 56 118 87 18 41 54 174 49 179 -2 2 -23 -9 -47 -26 -131 -90
-359 -164 -588 -192 -122 -15 -378 -12 -499 5 -235 34 -409 88 -548 172 -39
24 -74 43 -77 43 -2 0 4 -32 15 -71z M4890 2030 c-11 -11 -20 -33 -20 -50 0
-24 -8 -34 -43 -55 -62 -36 -115 -34 -152 5 -16 17 -32 30 -36 30 -16 0 -29
-67 -21 -105 6 -29 14 -41 30 -45 15 -3 33 -24 50 -55 l27 -50 120 -6 c66 -4
156 -14 200 -23 126 -24 267 -16 339 21 l31 16 -19 -21 c-10 -12 -42 -26 -75
-33 -73 -16 -240 -16 -313 0 -32 7 -100 14 -152 15 l-95 2 27 -23 c33 -29 62
-37 105 -30 17 3 85 -2 150 -9 133 -17 248 -8 320 24 57 26 71 44 63 87 -8 40
-19 47 -96 65 -30 7 -81 24 -113 38 l-58 25 -27 -24 -27 -24 23 26 22 26 -66
44 c-37 24 -73 48 -79 53 -9 6 -22 3 -41 -8 l-27 -19 24 -18 c13 -10 50 -32
82 -49 31 -17 57 -33 57 -36 0 -6 -52 21 -123 63 l-58 35 30 22 c36 25 37 31
11 74 -23 37 -42 40 -70 12z M4805 1994 c-24 -10 -61 -14 -92 -11 -63 4 -68
-8 -22 -47 38 -32 62 -33 119 -3 35 17 46 28 48 50 4 31 2 31 -53 11z M1415
1842 c47 -87 113 -159 171 -186 205 -97 525 -145 785 -116 214 23 449 99 511
166 27 29 118 163 118 174 0 3 -48 -18 -107 -47 -116 -56 -229 -92 -376 -120
-144 -26 -493 -24 -651 5 -145 27 -306 80 -404 132 l-73 40 26 -48z M4599
1771 c-19 -19 -29 -40 -29 -58 0 -62 -135 -99 -184 -50 -13 13 -25 30 -28 38
-16 44 -58 -79 -58 -173 0 -54 2 -58 31 -74 18 -9 77 -23 133 -31 56 -8 142
-28 191 -45 71 -24 114 -31 200 -35 146 -7 216 7 262 54 33 32 34 35 18 53 -9
10 -51 30 -93 45 -42 15 -115 49 -160 76 -46 27 -88 49 -93 49 -5 0 -9 6 -9
13 -1 6 -18 26 -39 42 -23 18 -47 50 -59 78 -24 55 -41 59 -83 18z m69 -92
c-33 -25 -35 -35 -7 -49 16 -9 24 -8 38 4 10 9 21 16 25 16 5 0 -2 -9 -15 -19
-24 -20 -24 -20 -4 -36 31 -25 -4 -5 -57 33 -49 35 -59 46 -33 36 8 -3 26 4
41 15 15 12 29 21 33 21 3 0 -6 -10 -21 -21z m115 -110 c13 10 15 9 10 -8 -7
-26 -15 -26 -44 -1 -21 19 -22 20 -2 9 17 -10 24 -10 36 0z M1584 1632 c15
-25 138 -104 221 -143 131 -62 245 -82 425 -76 210 7 338 47 498 156 87 59 98
77 31 50 -97 -38 -127 -48 -231 -71 -91 -20 -129 -23 -328 -23 -195 1 -239 4
-328 23 -87 19 -184 50 -276 88 -14 5 -17 4 -12 -4z M4297 1443 c-4 -3 -7 -22
-7 -40 0 -30 5 -36 37 -49 20 -9 93 -20 162 -25 69 -5 152 -17 186 -26 43 -13
100 -18 200 -18 136 0 142 1 200 30 34 17 65 40 72 54 19 39 3 46 -27 13 -36
-40 -83 -53 -215 -59 -95 -4 -126 -1 -225 21 -63 15 -161 33 -218 41 -93 13
-172 39 -159 52 3 2 16 -2 29 -11 23 -15 187 -41 210 -34 7 3 -29 10 -81 17
-51 6 -106 18 -122 26 -32 17 -33 17 -42 8z"/>
</g>
</svg>
