<?xml version="1.0" standalone="no"?>
<!DOCTYPE svg PUBLIC "-//W3C//DTD SVG 20010904//EN"
 "http://www.w3.org/TR/2001/REC-SVG-20010904/DTD/svg10.dtd">
<svg version="1.0" xmlns="http://www.w3.org/2000/svg"
 width="627.000000pt" height="627.000000pt" viewBox="0 0 627.000000 627.000000"
 preserveAspectRatio="xMidYMid meet">
<metadata>
Created by potrace 1.16, written by Peter Selinger 2001-2019
</metadata>
<g transform="translate(0.000000,0.000000) scale(1.000000) translate(0.000000,627.000000) scale(0.100000,-0.100000)"
fill="#F4F2ED" stroke="none">
<path d="M3185 5824 c-30 -8 -53 -10 -59 -4 -5 5 -29 1 -60 -12 -28 -11 -57
-23 -65 -26 -9 -3 -12 -1 -7 6 10 17 -5 15 -31 -3 -12 -8 -24 -29 -28 -45 -4
-17 -12 -30 -20 -30 -17 0 -64 -39 -47 -40 9 0 7 -9 -8 -30 -12 -18 -20 -39
-17 -50 3 -11 1 -38 -4 -62 -8 -34 -7 -43 6 -50 9 -5 15 -23 15 -41 0 -18 5
-38 12 -45 11 -11 27 -49 51 -122 6 -19 18 -40 26 -46 10 -8 12 -23 8 -58 -11
-77 -29 -100 -114 -146 -43 -23 -89 -52 -103 -64 -14 -13 -47 -31 -75 -41 -98
-36 -175 -146 -188 -270 -3 -28 -18 -84 -33 -125 -24 -68 -25 -83 -19 -155 4
-44 7 -132 6 -195 -1 -108 0 -114 15 -95 l17 20 -7 -20 c-4 -11 -10 -42 -13
-70 -3 -27 -10 -55 -14 -61 -16 -20 -31 -168 -26 -245 4 -41 16 -118 27 -170
12 -51 26 -143 31 -204 12 -139 12 -133 4 -240 -6 -87 -6 -91 20 -120 24 -28
25 -28 15 -5 -10 21 -7 20 17 -8 33 -38 52 -43 28 -6 -9 14 -15 27 -13 29 2 2
12 -9 23 -25 20 -29 43 -45 53 -36 2 3 -6 19 -18 35 -12 17 -18 31 -15 31 11
0 44 -44 45 -57 0 -7 7 -13 15 -13 12 0 14 6 8 28 -4 15 -7 52 -7 83 1 46 7
66 33 103 17 26 31 50 31 55 0 4 -11 18 -25 31 -38 35 -49 84 -48 200 1 73 8
131 23 190 19 72 21 99 15 180 -4 52 -6 119 -5 148 1 39 -2 52 -10 47 -7 -5
-10 -19 -6 -38 9 -46 -4 -26 -31 50 -36 99 -37 116 -4 50 l29 -58 29 38 c56
74 84 139 114 268 19 82 26 235 12 235 -7 0 8 20 32 45 25 24 45 49 45 55 0 5
5 10 11 10 6 0 1 -15 -10 -34 l-21 -34 41 -62 c44 -66 88 -100 158 -125 85
-29 234 -13 279 32 24 24 24 29 19 116 -2 51 -8 101 -11 112 -3 11 1 4 10 -15
9 -19 19 -71 22 -115 4 -69 9 -83 32 -106 43 -43 147 -64 182 -36 52 40 71
140 44 230 -8 26 -10 45 -5 42 14 -9 29 -77 29 -135 0 -58 -24 -125 -54 -149
-14 -11 -15 -26 -10 -90 4 -55 2 -93 -10 -137 -25 -96 -22 -145 12 -177 l29
-27 27 50 c16 28 30 49 33 46 6 -6 -49 -106 -58 -106 -4 0 -12 7 -19 15 -7 8
-18 15 -24 15 -9 0 -10 -18 -2 -72 6 -51 6 -88 -2 -128 -10 -48 -10 -62 3 -86
8 -16 15 -39 15 -52 0 -12 9 -40 20 -62 21 -41 48 -135 75 -263 9 -42 20 -75
24 -73 4 3 7 -23 6 -57 -1 -34 0 -53 3 -43 3 14 6 16 12 6 6 -9 12 -5 23 17 9
16 29 44 45 61 l30 32 -20 118 c-15 84 -21 170 -23 308 -3 202 -11 248 -61
361 -18 43 -24 73 -24 130 0 41 -9 119 -20 174 -19 94 -20 102 -4 149 12 37
15 74 12 134 -8 145 -70 235 -188 270 -26 8 -68 30 -93 49 -25 19 -59 41 -76
48 -30 14 -31 16 -31 81 l0 68 29 0 c16 0 35 7 42 16 21 26 50 215 35 233 -8
12 -8 13 2 7 10 -6 12 0 6 28 -4 22 -1 48 6 67 9 22 10 36 2 52 -6 12 -16 39
-22 59 -6 20 -16 41 -23 46 -23 17 -180 35 -209 23 -16 -6 -28 -7 -28 -2 0 20
109 27 158 10 21 -7 37 -7 49 0 15 7 22 5 31 -10 10 -16 15 -17 32 -7 11 7 18
18 16 25 -3 7 -1 15 4 18 14 9 12 42 -2 48 -10 4 -9 8 2 16 13 10 12 13 -4 26
-11 8 -28 15 -38 15 -9 0 -22 9 -28 20 -8 15 -21 20 -55 20 -25 0 -45 5 -45
10 0 12 -11 11 -75 -6z m-68 -279 c-6 -11 -18 -31 -28 -44 -12 -15 -19 -40
-19 -67 0 -56 -18 -58 -65 -8 -29 30 -37 34 -54 24 -14 -7 -22 -22 -22 -43 -2
-31 -2 -31 -6 -4 -5 33 20 67 48 67 10 0 31 -16 46 -35 31 -38 43 -32 43 23 0
20 10 47 25 66 14 19 26 48 26 67 l1 34 7 -30 c4 -16 3 -39 -2 -50z m172 -31
c53 -11 34 -21 -34 -20 -61 1 -80 8 -52 19 18 8 50 8 86 1z m126 -24 c3 -5 -3
-10 -15 -10 -12 0 -18 5 -15 10 3 6 10 10 15 10 5 0 12 -4 15 -10z m-136 -19
c12 -8 12 -12 -2 -25 -16 -16 -52 -12 -41 5 3 5 -3 9 -13 9 -15 0 -16 2 -3 10
19 12 41 12 59 1z m121 -19 c0 -4 -5 -13 -11 -19 -8 -8 -8 -17 0 -32 7 -12 9
-21 6 -21 -6 0 -35 63 -35 75 0 3 9 5 20 5 11 0 20 -4 20 -8z m-410 -43 c0
-10 -4 -19 -10 -19 -18 0 -10 -22 10 -27 11 -3 20 -9 20 -14 0 -12 -7 -11 -31
1 -20 11 -27 50 -8 50 6 0 8 9 4 21 -5 15 -4 19 4 15 6 -4 11 -16 11 -27z m22
-111 c15 -2 26 -15 36 -45 16 -50 43 -71 130 -103 81 -30 74 -36 -11 -10 -80
25 -113 51 -131 105 -10 27 -21 41 -35 43 -12 2 -32 18 -46 36 -35 47 -31 58
5 14 17 -20 40 -38 52 -40z m312 58 c-4 -11 4 -14 35 -12 44 2 50 -4 26 -24
-12 -10 -15 -10 -15 0 0 8 -9 11 -25 8 -14 -3 -28 -1 -31 4 -6 9 2 38 10 38 3
0 3 -6 0 -14z m51 -86 c16 -7 11 -9 -22 -9 -23 -1 -48 -4 -57 -7 -9 -3 -16 -1
-16 4 0 9 25 17 65 20 6 0 19 -3 30 -8z m1 -39 c-3 -5 -15 -7 -26 -4 -28 7
-25 13 6 13 14 0 23 -4 20 -9z m-388 -197 l-3 -49 -5 57 c-3 31 -1 53 3 49 5
-5 7 -30 5 -57z m281 -13 c-6 -18 -13 -30 -15 -28 -2 2 1 18 7 36 6 18 13 30
15 28 2 -2 -1 -18 -7 -36z m-99 -63 c23 -43 38 -78 33 -78 -5 0 -28 39 -52 88
-52 105 -39 98 19 -10z m102 -48 c-2 -16 -8 -30 -13 -30 -11 0 -11 3 1 34 13
34 18 33 12 -4z m-380 -7 c26 -24 42 -53 28 -53 -5 0 -10 6 -10 14 0 20 -26
38 -78 53 l-47 13 43 -4 c24 -2 53 -13 64 -23z m179 -8 c36 -4 83 -16 105 -26
21 -11 30 -17 19 -13 -34 10 -168 33 -197 34 -16 0 -28 5 -28 11 0 6 8 8 18 5
9 -2 47 -8 83 -11z m344 -30 c-24 -8 -114 -11 -109 -3 3 4 31 8 62 7 31 0 53
-2 47 -4z m-875 -377 c25 -41 27 -48 10 -33 -27 25 -60 85 -46 85 1 0 18 -24
36 -52z m160 5 c-14 -9 -40 -30 -59 -47 -31 -28 -33 -28 -19 -6 16 26 73 70
92 70 6 0 -1 -7 -14 -17z m407 -57 c-5 -14 -57 -21 -57 -7 0 14 31 30 47 24 8
-3 12 -11 10 -17z m-592 -188 c-4 -24 -11 -50 -17 -58 -7 -12 -8 -11 -4 5 3
11 8 37 12 58 3 20 8 37 11 37 3 0 2 -19 -2 -42z M2827 4523 c-4 -3 -7 -39 -7
-80 0 -80 -27 -218 -60 -305 l-22 -55 33 -58 c27 -48 34 -73 40 -149 5 -60 4
-104 -3 -129 -9 -30 -9 -41 3 -52 13 -13 217 -60 225 -52 9 8 -39 42 -108 76
-40 20 -74 42 -77 50 -2 10 5 8 26 -7 16 -11 54 -31 84 -45 31 -14 65 -38 77
-54 19 -27 28 -31 116 -41 170 -21 315 -13 317 17 0 10 2 11 6 4 10 -26 25
-11 55 53 28 60 30 71 24 132 -18 191 -19 228 -2 284 16 56 21 153 10 196 -4
14 -14 22 -28 22 -50 0 -125 31 -151 62 l-26 31 -16 -23 c-22 -31 -70 -49
-153 -56 -134 -13 -236 34 -311 142 -30 43 -39 50 -52 37z m539 -231 c-3 -5
-22 -13 -43 -17 -20 -4 -55 -16 -76 -27 -21 -10 -41 -17 -43 -15 -9 9 100 57
128 57 15 0 28 5 28 12 0 6 3 9 6 5 3 -3 3 -10 0 -15z m111 -35 c34 -30 21
-32 -23 -2 -50 34 -54 39 -24 30 14 -4 35 -17 47 -28z m-97 -72 c0 -56 -4 -70
-24 -90 -26 -26 -123 -44 -157 -29 -14 7 -1 10 46 11 36 1 74 4 84 8 25 7 41
55 41 116 0 27 2 49 5 49 3 0 5 -29 5 -65z m-451 39 c10 -9 -45 -3 -59 6 -11
7 -5 8 20 4 19 -4 37 -8 39 -10z m203 -89 c-9 -26 -18 -41 -20 -35 -2 5 -13
10 -25 10 -21 0 -87 34 -87 45 0 2 15 -4 33 -15 46 -29 74 -26 92 10 23 44 26
36 7 -15z m382 -50 c-9 -22 -50 -29 -87 -17 -30 11 -29 11 14 6 34 -3 49 -1
59 11 16 19 21 19 14 0z m-489 -42 c11 -7 15 -13 10 -13 -13 0 -85 48 -85 57
0 5 25 -9 75 -44z m343 -57 c-5 -87 -22 -106 -97 -106 -31 0 -63 5 -71 10 -11
7 -6 8 17 4 48 -9 120 4 127 23 4 9 9 43 13 75 8 78 16 74 11 -6z m-253 -66
c9 -36 18 -95 21 -132 2 -36 8 -78 14 -93 6 -15 9 -30 7 -32 -10 -9 -37 82
-37 125 0 40 -16 129 -36 197 -4 13 -3 17 4 10 5 -5 18 -39 27 -75z m376 -9
c-17 -30 -45 -43 -73 -32 -21 9 -21 10 9 10 22 1 38 9 50 25 21 28 29 27 14
-3z m-113 -59 c2 -8 -3 -10 -15 -5 -16 6 -16 5 -4 -10 8 -10 9 -17 3 -17 -16
0 -25 19 -18 36 7 17 27 15 34 -4z M2776 3674 c-3 -9 -6 -25 -6 -37 0 -12 -7
-31 -16 -42 -26 -35 -53 -142 -65 -256 -10 -101 -9 -112 7 -130 16 -17 19 -18
40 -4 17 11 51 15 122 15 110 0 108 1 170 -92 28 -41 32 -55 32 -113 0 -71
-21 -116 -83 -182 l-31 -33 -101 0 c-95 0 -103 2 -125 25 -13 14 -27 25 -32
25 -5 0 -7 -64 -6 -142 3 -134 4 -143 23 -146 31 -6 34 -12 45 -92 17 -122 -1
-252 -55 -380 -76 -184 -80 -252 -30 -610 18 -128 25 -218 23 -292 -2 -58 0
-109 4 -113 12 -12 57 29 58 52 0 28 43 62 89 69 l36 6 -3 100 c-4 109 11 204
55 348 21 69 27 116 33 250 9 187 8 183 37 230 28 47 55 146 48 173 -4 15 -3
18 3 9 19 -27 74 76 84 157 3 24 3 24 -92 22 -107 -2 -247 22 -270 46 -13 14
-13 15 5 8 92 -34 349 -45 402 -17 14 8 23 25 28 54 4 24 25 128 47 231 38
181 39 189 21 202 -17 14 -17 14 4 15 33 0 72 40 87 90 11 37 14 40 15 18 1
-33 -16 -75 -44 -108 -25 -29 -96 -336 -99 -423 l-1 -51 75 -12 c151 -25 383
-11 403 24 8 14 -13 403 -28 530 -22 183 -62 369 -90 428 -14 28 -25 62 -25
76 0 34 -7 38 -39 22 -95 -48 -307 -43 -575 11 -65 14 -129 31 -142 40 -29 19
-30 19 -38 -1z m111 -99 c29 -7 110 -24 180 -35 158 -27 391 -25 458 3 32 13
36 14 20 2 -53 -41 -209 -53 -390 -31 -151 20 -286 48 -335 70 -38 18 -23 16
67 -9z m72 -1168 c-2 -2 -21 -15 -41 -30 -21 -16 -38 -23 -38 -17 0 11 58 50
74 50 5 0 7 -1 5 -3z m-91 -322 c0 -16 -2 -15 -8 5 -11 34 -11 60 0 35 5 -11
8 -29 8 -40z m42 -306 c-11 -71 -20 -101 -20 -64 0 28 23 145 28 141 2 -3 -1
-37 -8 -77z M3526 3664 c-4 -9 -4 -19 -2 -21 8 -8 26 8 26 23 0 19 -16 18 -24
-2z M3803 3173 c-46 -59 -53 -77 -53 -148 0 -71 6 -89 52 -147 l30 -38 104 0
103 0 43 56 c39 52 42 60 44 129 3 71 2 73 -38 129 -42 56 -42 56 -95 56 -51
0 -53 -1 -41 -20 10 -15 24 -20 60 -20 45 0 50 -3 78 -42 16 -22 30 -48 29
-57 0 -9 -4 -6 -10 9 -6 14 -22 37 -36 53 -38 39 -77 36 -119 -9 -31 -32 -34
-41 -34 -95 0 -50 5 -66 26 -95 23 -29 32 -34 69 -34 45 0 60 11 88 65 10 19
16 24 17 13 0 -15 -41 -73 -65 -90 -5 -4 -29 -8 -51 -8 -28 0 -44 -5 -48 -15
-10 -27 -34 -16 -73 33 -21 26 -40 48 -43 49 -3 2 -4 36 -2 75 3 67 7 77 43
125 21 29 39 55 39 58 0 3 -19 5 -43 5 -38 0 -47 -5 -74 -37z M2286 3147 c-41
-48 -46 -60 -52 -119 -8 -85 -3 -105 47 -168 l41 -52 104 4 103 3 30 35 c36
42 41 63 8 32 -17 -16 -36 -22 -70 -22 -36 0 -49 -4 -57 -20 -14 -26 -26 -19
-80 45 l-42 50 5 78 c4 77 4 78 50 125 26 26 47 51 47 55 0 4 -20 7 -44 7 -41
0 -48 -4 -90 -53z M2430 3190 c0 -6 -18 -30 -40 -54 -33 -36 -37 -45 -24 -50
26 -10 30 -8 59 29 22 29 24 39 14 51 -10 12 -9 13 5 8 11 -4 16 -1 16 10 0 9
-7 16 -15 16 -8 0 -15 -5 -15 -10z M2711 3161 c-82 -103 -79 -227 7 -318 25
-28 37 -33 76 -33 25 0 46 3 46 6 0 3 -20 31 -45 63 -44 56 -45 59 -45 131 0
69 2 75 37 119 20 25 41 52 46 59 7 9 -2 12 -41 12 -47 0 -53 -3 -81 -39z
M2868 3180 c13 -13 35 -20 59 -20 46 0 56 -6 88 -50 14 -19 25 -30 25 -25 0 4
-18 32 -40 62 l-41 53 -56 0 -57 0 22 -20z M3896 3145 c-31 -41 -36 -56 -38
-104 -2 -85 0 -91 39 -139 32 -39 37 -42 51 -28 14 14 13 19 -16 55 -27 34
-32 48 -32 95 0 44 -4 55 -17 59 -14 4 -13 5 4 6 13 1 34 16 49 37 25 32 26
37 12 50 -14 14 -19 11 -52 -31z M2818 3148 c-39 -52 -42 -59 -27 -70 11 -7 9
-8 -6 -6 -18 3 -20 -3 -23 -57 -3 -57 0 -64 38 -118 44 -61 51 -65 70 -42 10
12 5 22 -25 57 -33 39 -36 48 -34 98 2 45 8 62 35 95 24 31 30 45 23 58 -14
24 -23 21 -51 -15z M2861 3103 c-27 -32 -31 -46 -31 -95 0 -47 5 -62 27 -90
38 -46 43 -48 83 -42 95 17 129 124 70 217 -28 44 -32 47 -74 47 -39 0 -48 -4
-75 -37z M2421 3094 c-16 -20 -21 -41 -21 -86 0 -52 4 -65 31 -99 25 -31 37
-39 64 -39 66 0 92 32 35 45 -16 3 -43 22 -60 42 -30 34 -31 38 -25 99 4 35 5
64 2 64 -3 0 -15 -12 -26 -26z M2340 3013 c0 -69 8 -90 59 -153 19 -23 21 -24
37 -9 15 16 13 20 -19 56 -32 35 -36 46 -39 104 -2 51 -6 64 -20 67 -16 3 -18
-5 -18 -65z M3716 3003 c4 -43 7 -86 6 -95 0 -10 4 -18 9 -18 16 0 23 32 11
51 -7 10 -12 46 -12 79 0 36 -4 60 -11 60 -7 0 -8 -24 -3 -77z M2930 2863
c-39 -3 -70 -22 -70 -42 0 -3 22 -4 49 -3 39 3 53 9 66 28 8 13 12 23 8 22 -5
-1 -28 -3 -53 -5z M3256 2504 c3 -16 10 -45 14 -64 5 -19 12 -64 15 -99 4 -36
15 -88 24 -115 15 -44 16 -57 5 -94 -7 -23 -20 -88 -30 -144 -21 -127 -15
-218 21 -295 33 -72 45 -158 54 -362 5 -137 9 -166 23 -174 23 -15 85 28 103
70 8 18 25 38 38 44 23 10 24 17 30 121 4 60 16 178 28 261 17 124 20 182 16
319 -3 123 -1 182 9 225 8 32 14 94 13 138 -1 52 4 96 15 124 9 24 16 46 16
50 0 3 -64 6 -142 6 -79 0 -169 4 -201 9 l-58 8 7 -28z m177 -203 c29 -11 45
-5 92 38 l39 36 -24 -33 c-14 -18 -37 -41 -51 -49 -23 -14 -31 -14 -58 -3 -31
12 -61 55 -61 82 1 7 10 -4 21 -25 11 -21 30 -42 42 -46z m77 -163 c0 -6 -7
-5 -15 2 -8 7 -15 17 -15 22 0 6 7 5 15 -2 8 -7 15 -17 15 -22z m-130 -42 c0
-6 -11 5 -25 24 -14 19 -25 36 -25 39 1 10 50 -53 50 -63z m45 -356 c-9 -29
-13 -34 -10 -15 3 17 8 66 12 110 l8 80 3 -65 c1 -39 -4 -83 -13 -110z m-26
-533 c1 -5 -3 -5 -9 -2 -5 3 -10 16 -9 28 0 21 1 21 9 2 5 -11 9 -24 9 -28z
M3523 1255 c-25 -18 -30 -44 -10 -64 10 -12 9 -13 -7 -7 -12 4 -30 -2 -50 -17
-43 -32 -64 -39 -87 -27 -12 7 -19 21 -19 40 0 17 -5 30 -10 30 -16 0 -28 -40
-35 -118 -7 -66 -6 -71 15 -82 12 -7 61 -18 109 -26 52 -8 114 -27 156 -46 63
-30 79 -33 160 -33 80 0 93 3 113 23 14 14 34 22 54 22 l33 0 -25 24 c-14 12
-50 33 -81 45 -67 26 -210 143 -194 159 4 4 10 1 12 -5 6 -15 33 -17 33 -3 0
6 -11 16 -25 22 -20 9 -28 8 -42 -4 -10 -8 -27 -18 -38 -20 -11 -3 -29 -9 -40
-13 -15 -6 -17 -5 -9 4 6 7 27 18 46 25 35 11 35 12 24 46 -13 41 -47 51 -83
25z m87 -124 c-19 -9 -37 -16 -40 -13 -9 7 34 32 54 32 16 -1 13 -5 -14 -19z
m45 -36 c-32 -14 -41 -13 -30 4 3 6 18 11 33 10 l27 -1 -30 -13z m61 -24 c-8
-12 -46 -21 -46 -11 0 5 10 11 23 13 12 2 23 5 25 6 2 0 1 -3 -2 -8z M2803
1165 c-35 -15 -45 -49 -22 -72 9 -9 7 -11 -9 -6 -13 3 -31 -3 -48 -16 -37 -29
-52 -26 -56 12 l-4 32 -13 -30 c-7 -16 -13 -61 -14 -98 l-2 -68 45 -26 c25
-13 61 -40 80 -58 48 -46 81 -57 177 -57 75 0 86 2 115 27 25 21 39 26 65 22
51 -9 42 16 -25 68 -56 44 -132 131 -132 153 0 6 -6 12 -12 15 -7 2 -9 8 -5
13 4 5 12 2 17 -6 11 -18 25 -6 17 15 -4 8 -16 15 -27 15 -21 0 -24 4 -34 53
-6 24 -11 27 -44 27 -20 -1 -52 -7 -69 -15z m70 -89 c-29 -7 -59 -19 -68 -26
-8 -7 -15 -8 -15 -2 0 16 62 42 100 41 32 -1 30 -2 -17 -13z m57 -26 c12 -7 8
-10 -14 -10 -16 0 -44 -9 -62 -21 -19 -11 -34 -16 -34 -11 0 9 76 52 90 52 3
0 12 -5 20 -10z m35 -50 c4 -6 -6 -10 -22 -10 -16 0 -38 -7 -49 -15 -28 -21
-40 -18 -20 4 10 11 30 22 45 24 14 2 29 5 33 6 4 0 10 -3 13 -9z m-10 -55
c-27 -7 -52 -11 -54 -9 -7 7 44 23 74 23 23 0 19 -3 -20 -14z M3286 984 c-16
-63 25 -86 164 -90 56 -1 107 -9 150 -24 55 -19 80 -21 166 -18 111 5 169 27
169 64 0 30 -38 29 -76 -3 -30 -26 -39 -28 -118 -28 -79 0 -92 3 -161 37 -48
23 -97 39 -135 43 -79 9 -135 23 -135 35 0 21 -18 9 -24 -16z m164 -39 c36 -3
76 -13 90 -21 17 -11 19 -13 5 -9 -11 4 -58 11 -104 16 -73 8 -121 22 -121 34
0 2 15 0 33 -5 17 -5 61 -11 97 -15z M2614 885 c-12 -50 22 -85 85 -85 16 0
36 -9 47 -21 43 -49 145 -67 274 -49 110 15 153 37 128 67 -17 21 -71 15 -108
-12 -29 -22 -44 -25 -114 -25 -89 0 -152 23 -180 65 -8 12 -40 37 -71 53 l-55
30 -6 -23z m113 -62 c2 -6 -16 -2 -41 10 -26 11 -46 24 -46 29 0 11 83 -26 87
-39z"/>
</g>
</svg>
